<?xml version="1.0" standalone="no"?>
<!DOCTYPE svg PUBLIC "-//W3C//DTD SVG 20010904//EN"
 "http://www.w3.org/TR/2001/REC-SVG-20010904/DTD/svg10.dtd">
<svg version="1.0" xmlns="http://www.w3.org/2000/svg"
 width="1500.000000pt" height="1500.000000pt" viewBox="0 0 1500.000000 1500.000000"
 preserveAspectRatio="xMidYMid meet" xmlns:c2pa="http://c2pa.org/manifest">
<metadata><c2pa:manifest>AAAWgmp1bWIAAAAeanVtZGMycGEAEQAQgAAAqgA4m3EDYzJwYQAAABZcanVtYgAAAEdqdW1kYzJtYQARABCAAACqADibcQN1cm46YzJwYToyZDVmMjU2Mi1mNTNmLTRmYjItYWIxNC03MGFiMzRlN2RjOTYAAAADl2p1bWIAAAApanVtZGMyYXMAEQAQgAAAqgA4m3EDYzJwYS5hc3NlcnRpb25zAAAAALxqdW1iAAAARGp1bWRjYm9yABEAEIAAAKoAOJtxE2MycGEuaW5ncmVkaWVudC52MwAAAAAYYzJzaPVvlSbIO7FP7vIONb7kU1UAAABwY2JvcqNpZGM6Zm9ybWF0bWltYWdlL3N2Zyt4bWxqaW5zdGFuY2VJRHgseG1wOmlpZDo1ZGQwOGIyMS00Yjg0LTQ0MWUtYWYzNi05NmU5OTUzOGUxNmRscmVsYXRpb25zaGlwaHBhcmVudE9mAAAB4mp1bWIAAABBanVtZGNib3IAEQAQgAAAqgA4m3ETYzJwYS5hY3Rpb25zLnYyAAAAABhjMnNoMJWk7h0sExexBBXjbBVKDAAAAZljYm9yomdhY3Rpb25zgqJmYWN0aW9ua2MycGEub3BlbmVkanBhcmFtZXRlcnOha2luZ3JlZGllbnRzgaJjdXJseC1zZWxmI2p1bWJmPWMycGEuYXNzZXJ0aW9ucy9jMnBhLmluZ3JlZGllbnQudjNkaGFzaFggG1cGgtA7wONiTtz8skWvIV2kAJtj6FZXIzE+c+R2Z3+kZmFjdGlvbngdY29tLmFudGhyb3BpYy5jbGF1ZGUucHJvdmlkZWRqcGFyYW1ldGVyc6F4H2NvbS5hbnRocm9waWMub3JpZ2luLWNvbmZpZGVuY2VndW5rbm93bmtkZXNjcmlwdGlvbnhmQ2xhdWRlIHByb3ZpZGVkIHRoaXMgZmlsZSBhdCB0aGUgcmVxdWVzdCBvZiBhIHVzZXIgYW5kIG1heSBoYXZlIGNyZWF0ZWQgb3IgbW9kaWZpZWQgdGhlIGZpbGUgY29udGVudHMubXNvZnR3YXJlQWdlbnShZG5hbWVmQ2xhdWRlcmFsbEFjdGlvbnNJbmNsdWRlZPUAAADIanVtYgAAAEBqdW1kY2JvcgARABCAAACqADibcRNjMnBhLmhhc2guZGF0YQAAAAAYYzJzaO/O7X7ed543dyc2VUqZJPEAAACAY2JvcqVjYWxnZnNoYTI1NmNwYWRMAAAAAAAAAAAAAAAAZGhhc2hYIH34Ibv2SHxIxVh4js2sh01AmUeZaEokrQV5CaRavM0AZG5hbWVuanVtYmYgbWFuaWZlc3RqZXhjbHVzaW9uc4GiZXN0YXJ0GQGGZmxlbmd0aBkeBAAAAj5qdW1iAAAAJ2p1bWRjMmNsABEAEIAAAKoAOJtxA2MycGEuY2xhaW0udjIAAAACD2Nib3KlY2FsZ2ZzaGEyNTZpc2lnbmF0dXJleE1zZWxmI2p1bWJmPS9jMnBhL3VybjpjMnBhOjJkNWYyNTYyLWY1M2YtNGZiMi1hYjE0LTcwYWIzNGU3ZGM5Ni9jMnBhLnNpZ25hdHVyZWppbnN0YW5jZUlEeCx4bXA6aWlkOmEzNTAwNjczLTYzZjQtNGY2Mi05MTUxLTZiYjAxZTI3NTE1N3JjcmVhdGVkX2Fzc2VydGlvbnODomN1cmx4LXNlbGYjanVtYmY9YzJwYS5hc3NlcnRpb25zL2MycGEuaW5ncmVkaWVudC52M2RoYXNoWCAbVwaC0DvA42JO3PyyRa8hXaQAm2PoVlcjMT5z5HZnf6JjdXJseCpzZWxmI2p1bWJmPWMycGEuYXNzZXJ0aW9ucy9jMnBhLmFjdGlvbnMudjJkaGFzaFggVJElXMs74+3XNDIbC6GyoP+VjX/vLCIUPiJ6vUHqawCiY3VybHgpc2VsZiNqdW1iZj1jMnBhLmFzc2VydGlvbnMvYzJwYS5oYXNoLmRhdGFkaGFzaFggUwzfgU3cGXyjGY+HNS49eD9aPnrHUT4Dll5qkDxphzp0Y2xhaW1fZ2VuZXJhdG9yX2luZm+jZG5hbWVvQW50aHJvcGljIEZpbGVzZ3ZlcnNpb25lMS4wLjBrc3BlY1ZlcnNpb25lMi40LjAAABA4anVtYgAAAChqdW1kYzJjcwARABCAAACqADibcQNjMnBhLnNpZ25hdHVyZQAAABAIY2JvctKEWQISogEmGCFZAgowggIGMIIBjaADAgECAhRA5aAK7sI50L64g/oGQgU9Z1UTADAKBggqhkjOPQQDAzBJMRcwFQYDVQQKEw5BbnRocm9waWMsIFBCQzEuMCwGA1UEAxMlQW50aHJvcGljIENvbnRlbnQgQ3JlZGVudGlhbHMgUm9vdCBDQTAeFw0yNjA4MDcxODQzNTZaFw0yODA4MDYxOTQzNTZaMEQxFzAVBgNVBAoTDkFudGhyb3BpYywgUEJDMSkwJwYDVQQDEyBBbnRocm9waWMgQ2xhdWRlIENvbnRlbnQgU2lnbmluZzBZMBMGByqGSM49AgEGCCqGSM49AwEHA0IABJh6CmvLUBgFFNU0vUKlOVtE6djd17L5SuwX0LemFisBM3dkd/3cyjxFA3Qo5S46fX0/ihY0VZ7mfb9KF703t5OjWDBWMA4GA1UdDwEB/wQEAwIHgDAVBgNVHSUEDjAMBgorBgEEAYPoXgIBMAwGA1UdEwEB/wQCMAAwHwYDVR0jBBgwFoAUzlHiBIFOZFsj+OPEz5o+nMHXXMIwCgYIKoZIzj0EAwMDZwAwZAIwMXMdFJ4BetLLVY7ORuE9noqbbAZOZn/aArXyTwFAZfKrPzxF2vPoJNf1+UCdg1XGAjBwX1zd9WGqYkqmL5SFqw1QySjr1zJfpJM9+1rdDwSPLMOPOjKuiXjoU/pUUeG9RwmhY3BhZFkNngAAAAAAAAAAAAAAAAAAAAAAAAAAAAAAAAAAAAAAAAAAAAAAAAAAAAAAAAAAAAAAAAAAAAAAAAAAAAAAAAAAAAAAAAAAAAAAAAAAAAAAAAAAAAAAAAAAAAAAAAAAAAAAAAAAAAAAAAAAAAAAAAAAAAAAAAAAAAAAAAAAAAAAAAAAAAAAAAAAAAAAAAAAAAAAAAAAAAAAAAAAAAAAAAAAAAAAAAAAAAAAAAAAAAAAAAAAAAAAAAAAAAAAAAAAAAAAAAAAAAAAAAAAAAAAAAAAAAAAAAAAAAAAAAAAAAAAAAAAAAAAAAAAAAAAAAAAAAAAAAAAAAAAAAAAAAAAAAAAAAAAAAAAAAAAAAAAAAAAAAAAAAAAAAAAAAAAAAAAAAAAAAAAAAAAAAAAAAAAAAAAAAAAAAAAAAAAAAAAAAAAAAAAAAAAAAAAAAAAAAAAAAAAAAAAAAAAAAAAAAAAAAAAAAAAAAAAAAAAAAAAAAAAAAAAAAAAAAAAAAAAAAAAAAAAAAAAAAAAAAAAAAAAAAAAAAAAAAAAAAAAAAAAAAAAAAAAAAAAAAAAAAAAAAAAAAAAAAAAAAAAAAAAAAAAAAAAAAAAAAAAAAAAAAAAAAAAAAAAAAAAAAAAAAAAAAAAAAAAAAAAAAAAAAAAAAAAAAAAAAAAAAAAAAAAAAAAAAAAAAAAAAAAAAAAAAAAAAAAAAAAAAAAAAAAAAAAAAAAAAAAAAAAAAAAAAAAAAAAAAAAAAAAAAAAAAAAAAAAAAAAAAAAAAAAAAAAAAAAAAAAAAAAAAAAAAAAAAAAAAAAAAAAAAAAAAAAAAAAAAAAAAAAAAAAAAAAAAAAAAAAAAAAAAAAAAAAAAAAAAAAAAAAAAAAAAAAAAAAAAAAAAAAAAAAAAAAAAAAAAAAAAAAAAAAAAAAAAAAAAAAAAAAAAAAAAAAAAAAAAAAAAAAAAAAAAAAAAAAAAAAAAAAAAAAAAAAAAAAAAAAAAAAAAAAAAAAAAAAAAAAAAAAAAAAAAAAAAAAAAAAAAAAAAAAAAAAAAAAAAAAAAAAAAAAAAAAAAAAAAAAAAAAAAAAAAAAAAAAAAAAAAAAAAAAAAAAAAAAAAAAAAAAAAAAAAAAAAAAAAAAAAAAAAAAAAAAAAAAAAAAAAAAAAAAAAAAAAAAAAAAAAAAAAAAAAAAAAAAAAAAAAAAAAAAAAAAAAAAAAAAAAAAAAAAAAAAAAAAAAAAAAAAAAAAAAAAAAAAAAAAAAAAAAAAAAAAAAAAAAAAAAAAAAAAAAAAAAAAAAAAAAAAAAAAAAAAAAAAAAAAAAAAAAAAAAAAAAAAAAAAAAAAAAAAAAAAAAAAAAAAAAAAAAAAAAAAAAAAAAAAAAAAAAAAAAAAAAAAAAAAAAAAAAAAAAAAAAAAAAAAAAAAAAAAAAAAAAAAAAAAAAAAAAAAAAAAAAAAAAAAAAAAAAAAAAAAAAAAAAAAAAAAAAAAAAAAAAAAAAAAAAAAAAAAAAAAAAAAAAAAAAAAAAAAAAAAAAAAAAAAAAAAAAAAAAAAAAAAAAAAAAAAAAAAAAAAAAAAAAAAAAAAAAAAAAAAAAAAAAAAAAAAAAAAAAAAAAAAAAAAAAAAAAAAAAAAAAAAAAAAAAAAAAAAAAAAAAAAAAAAAAAAAAAAAAAAAAAAAAAAAAAAAAAAAAAAAAAAAAAAAAAAAAAAAAAAAAAAAAAAAAAAAAAAAAAAAAAAAAAAAAAAAAAAAAAAAAAAAAAAAAAAAAAAAAAAAAAAAAAAAAAAAAAAAAAAAAAAAAAAAAAAAAAAAAAAAAAAAAAAAAAAAAAAAAAAAAAAAAAAAAAAAAAAAAAAAAAAAAAAAAAAAAAAAAAAAAAAAAAAAAAAAAAAAAAAAAAAAAAAAAAAAAAAAAAAAAAAAAAAAAAAAAAAAAAAAAAAAAAAAAAAAAAAAAAAAAAAAAAAAAAAAAAAAAAAAAAAAAAAAAAAAAAAAAAAAAAAAAAAAAAAAAAAAAAAAAAAAAAAAAAAAAAAAAAAAAAAAAAAAAAAAAAAAAAAAAAAAAAAAAAAAAAAAAAAAAAAAAAAAAAAAAAAAAAAAAAAAAAAAAAAAAAAAAAAAAAAAAAAAAAAAAAAAAAAAAAAAAAAAAAAAAAAAAAAAAAAAAAAAAAAAAAAAAAAAAAAAAAAAAAAAAAAAAAAAAAAAAAAAAAAAAAAAAAAAAAAAAAAAAAAAAAAAAAAAAAAAAAAAAAAAAAAAAAAAAAAAAAAAAAAAAAAAAAAAAAAAAAAAAAAAAAAAAAAAAAAAAAAAAAAAAAAAAAAAAAAAAAAAAAAAAAAAAAAAAAAAAAAAAAAAAAAAAAAAAAAAAAAAAAAAAAAAAAAAAAAAAAAAAAAAAAAAAAAAAAAAAAAAAAAAAAAAAAAAAAAAAAAAAAAAAAAAAAAAAAAAAAAAAAAAAAAAAAAAAAAAAAAAAAAAAAAAAAAAAAAAAAAAAAAAAAAAAAAAAAAAAAAAAAAAAAAAAAAAAAAAAAAAAAAAAAAAAAAAAAAAAAAAAAAAAAAAAAAAAAAAAAAAAAAAAAAAAAAAAAAAAAAAAAAAAAAAAAAAAAAAAAAAAAAAAAAAAAAAAAAAAAAAAAAAAAAAAAAAAAAAAAAAAAAAAAAAAAAAAAAAAAAAAAAAAAAAAAAAAAAAAAAAAAAAAAAAAAAAAAAAAAAAAAAAAAAAAAAAAAAAAAAAAAAAAAAAAAAAAAAAAAAAAAAAAAAAAAAAAAAAAAAAAAAAAAAAAAAAAAAAAAAAAAAAAAAAAAAAAAAAAAAAAAAAAAAAAAAAAAAAAAAAAAAAAAAAAAAAAAAAAAAAAAAAAAAAAAAAAAAAAAAAAAAAAAAAAAAAAAAAAAAAAAAAAAAAAAAAAAAAAAAAAAAAAAAAAAAAAAAAAAAAAAAAAAAAAAAAAAAAAAAAAAAAAAAAAAAAAAAAAAAAAAAAAAAAAAAAAAAAAAAAAAAAAAAAAAAAAAAAAAAAAAAAAAAAAAAAAAAAAAAAAAAAAAAAAAAAAAAAAAAAAAAAAAAAAAAAAAAAAAAAAAAAAAAAAAAAAAAAAAAAAAAAAAAAAAAAAAAAAAAAAAAAAAAAAAAAAAAAAAAAAAAAAAAAAAAAAAAAAAAAAAAAAAAAAAAAAAAAAAAAAAAAAAAAAAAAAAAAAAAAAAAAAAAAAAAAAAAAAAAAAAAAAAAAAAAAAAAAAAAAAAAAAAAAAAAAAAAAAAAAAAAAAAAAAAAAAAAAAAAAAAAAAAAAAAAAAAAAAAAAAAAAAAAAAAAAAAAAAAAAAAAAAAAAAAAAAAAAAAAAAAAAAAAAAAAAAAAAAAAAAAAAAAAAAAAAAAAAAAAAAAAAAAAAAAAAAAAAAAAAAAAAAAAAAAAAAAAAAAAAAAAAAAAAAAAAAAAAAAAAAAAAAAAAAAAAAAAAAAAAAAAAAAAAAAAAAAAAAAAAAAAAAAAAAAAAAAAAAAAAAAAAAAAAAAAAAAAAAAAAAAAAAAAAAAAAAAAAAAAAAAAAAAAAAAAAAAAAAAAAAAAAAAAAAAAAAAAAAAAAAAAAAAAAAAAAAAAAAAAAAAAAAAAAAAAAAAAAAAAAAAAAAAAAAAAAAAAAAAAAAAAAAAAAAAAAAAAAAAAAAAAAAAAAAAAAAAAAAAAAAAAAAAAAAAAAAAAAAAAAAAAAAAAAAAAAAAAAAAAAAAAAAAAAAAAAAAAAAAAAAAAAAAAAAAAAAAAAAAAAAAAAAAAAAAAAAAAAAAAAAAAAAAAAAAAAAAAAAAAAAAAAAAAAAAAAAAAAAAAAAAAAAAAAAAAAAAAAAAAAAAAAAAAAAAAAAAAAAAAAAAAAAAAAAAAAAAAAAAAAAAAAAAAAAAAAAAAAAAAAAAAAAAAAAAAAAAAAAAAAAAAAAAAAAAAAAAAAAAAAAAAAAAAAAAAAAAAAAAAAAAAAAAAAAAAAAAAAAAAAAAAAAAAAAAAAAAAAAAAAAAAAAAAAAAAAAAAAAAAAAAAAAAAAAAAAAAAAAAAAAAAAAAAAAAAAAAAAAAAAAAAAAAAAAAAAAAAAAAAAAAAAAAAAAAAAAAAAAAAAAAAAAAAAAAAAAAAAAAAAAAAAAAAAAAAAAAAAAAAAAAAAAAAAAAAAAAAAAAAAAAAAAAAAAAAAAAAAAAAAAAAAAAAAAAAAAAAAAAAAAAAAAAAAAAAAAAAAAAAAAAAAAAAAAAAAAAAAAAAAAAAAAAAAAAAAAAAAAAAAAAAAAAAAAAAAAAAAAAAAAAAAAAAAAAAAAAAAAAAAAAAAAAAAAAAAAAAAAAAAAAAAAAAAAAAAAAAAAAAAAAAAAAAAAAAAAAAAAAAAAAAAAAAAAAAAAAAAAAAAAAAAAAAAAAAAAAAAAAAAAAAAAAAAAAAAAAAAAAAAAAAAAAAAAAAAAAAAAAAAAAAAAAAAAAAAAAAAAAAAAAAAAAAAAAAAAAAAAAAAAAAAAAAAAAAAAAAAAAAAAAAAAAAAAAAAAAAAAAAAAAAAAAAAAAAAAAAAAAAAAAAAAAAAAAAAAAAAAAAAAAAAAAAAAAAAAAAAAAAAAAAAAAAAAAAAAAAAAAAAAAAAAAAAAAAAAAAAAAAAAAAAAAAAAAAAAAAAAAAAAAAAAAAAAAAAAAAAAAAAAAAAAAAAAAAAAAAAAAAAAAAAPZYQB+gY1D/6kaWKjq/3QvjfPN8K6FLyvaEkFCBnuEqjeYlCmaztAhuEtqmUHVMPAcIMNLQAF6H/fXDcapVtTvc0vc=</c2pa:manifest>
Created by potrace 1.16, written by Peter Selinger 2001-2019
</metadata>
<g transform="translate(0.000000,1500.000000) scale(0.100000,-0.100000)"
fill="#912229" stroke="none">
<rect x="0" y="0" width="15000" height="15000" fill="#F3CAD4"/>

<path d="M0 7500 l0 -7500 7500 0 7500 0 0 7500 0 7500 -7500 0 -7500 0 0
-7500z m6761 5563 c84 -29 163 -80 238 -154 116 -114 206 -273 283 -500 l43
-129 171 0 172 0 36 108 c45 129 139 328 194 410 82 120 248 243 376 277 88
24 204 17 271 -15 60 -29 117 -84 146 -142 26 -51 34 -58 72 -58 62 0 235 -43
304 -75 135 -62 243 -193 286 -345 24 -82 39 -227 32 -295 -15 -135 -71 -283
-144 -380 l-39 -51 100 -73 c333 -244 669 -592 944 -976 l96 -135 -71 -68
c-112 -108 -158 -228 -149 -387 5 -76 35 -186 58 -209 16 -16 314 -20 461 -6
166 15 385 15 484 0 359 -55 641 -292 744 -625 42 -134 46 -272 9 -297 -7 -5
-32 -6 -56 -3 -42 6 -44 5 -99 -54 -43 -47 -62 -61 -84 -61 -33 0 -35 7 -44
165 -8 157 -45 263 -123 359 -75 93 -215 176 -354 210 -69 16 -266 41 -273 34
-3 -2 16 -56 41 -119 282 -711 446 -1580 447 -2364 2 -781 -151 -1614 -429
-2336 -86 -223 -120 -298 -139 -305 -9 -4 -46 9 -83 27 -63 32 -73 34 -167 34
-90 0 -105 -3 -154 -28 -151 -80 -241 -236 -241 -418 0 -140 54 -262 157 -359
42 -39 62 -64 57 -72 -4 -7 -53 -75 -108 -152 -301 -415 -672 -782 -1046
-1035 -615 -417 -1320 -610 -1954 -536 -595 70 -1135 305 -1659 724 -163 130
-449 413 -588 582 -86 104 -283 368 -313 417 -5 8 15 33 57 72 103 97 157 219
157 359 0 182 -90 338 -241 418 -49 25 -64 28 -154 28 -94 0 -104 -2 -168 -34
-53 -27 -73 -32 -85 -24 -20 12 -72 131 -157 357 -265 713 -410 1519 -408
2281 1 576 82 1160 245 1755 50 183 142 459 206 618 l49 122 -51 0 c-75 0
-232 -26 -299 -49 -199 -69 -342 -214 -393 -401 -8 -30 -17 -110 -21 -178 -3
-69 -11 -129 -18 -139 -20 -26 -58 -8 -109 52 -47 54 -49 55 -101 55 -71 0
-80 13 -78 109 4 184 115 424 268 576 152 152 331 234 565 257 99 10 156 9
360 -6 257 -19 516 -24 531 -9 22 22 52 134 57 208 9 159 -37 279 -149 387
l-71 68 96 135 c270 377 594 714 929 964 53 41 97 75 97 78 0 2 -18 28 -40 57
-92 121 -142 279 -142 446 0 179 54 336 152 443 92 100 195 149 385 181 55 10
110 19 121 22 12 2 24 14 27 26 11 43 66 117 107 144 101 67 245 81 371 37z
m-2217 -2877 c64 -27 90 -98 61 -160 -21 -44 -59 -66 -116 -66 -33 0 -47 6
-75 34 -45 45 -48 108 -7 156 42 50 80 60 137 36z m6044 -31 c26 -29 32 -43
32 -81 0 -39 -5 -51 -34 -80 -28 -28 -42 -34 -75 -34 -57 0 -95 22 -116 66
-59 124 99 230 193 129z m-6014 -5956 c43 -37 54 -81 32 -132 -16 -40 -67 -77
-104 -77 -38 0 -92 30 -107 61 -8 15 -15 47 -15 70 0 33 6 47 34 75 29 29 41
34 80 34 36 0 52 -6 80 -31z m6012 -3 c28 -28 34 -42 34 -75 0 -23 -7 -55 -15
-70 -15 -31 -69 -61 -107 -61 -37 0 -88 37 -104 77 -22 51 -11 95 32 132 28
25 44 31 80 31 39 0 51 -5 80 -34z M6497 13016 c-71 -26 -130 -79 -153 -138
-5 -16 2 -18 77 -18 114 0 203 -21 301 -70 159 -79 268 -192 429 -447 100
-157 152 -229 156 -216 2 5 -21 86 -51 179 -138 422 -311 646 -551 710 -64 17
-159 17 -208 0z M8265 13012 c-85 -29 -147 -72 -235 -161 -94 -96 -148 -180
-214 -334 -49 -116 -139 -383 -134 -399 4 -10 49 56 224 322 86 132 213 262
312 319 112 65 192 91 319 104 l113 11 -16 25 c-57 90 -133 131 -244 131 -45
-1 -95 -8 -125 -18z M8515 12803 c-133 -21 -244 -69 -349 -153 -92 -73 -155
-150 -291 -360 -59 -91 -132 -195 -161 -232 -52 -65 -68 -108 -40 -108 37 0
145 91 254 214 310 350 464 463 709 523 185 45 440 2 551 -92 54 -45 48 -20
-9 40 -103 109 -266 165 -494 170 -77 2 -153 1 -170 -2z M6220 12793 c-85 -9
-198 -36 -254 -62 -68 -31 -157 -95 -176 -125 -11 -18 -9 -18 21 3 129 85 317
118 495 87 260 -45 430 -156 687 -449 74 -83 155 -171 180 -195 47 -42 134
-102 149 -102 23 0 3 55 -37 104 -24 30 -100 140 -169 243 -68 103 -149 216
-179 251 -105 121 -229 202 -362 237 -55 14 -253 19 -355 8z M6007 12629
c-129 -37 -208 -93 -255 -183 -23 -44 -27 -63 -27 -142 0 -87 2 -94 44 -178
98 -200 335 -374 609 -448 114 -31 308 -31 417 0 70 20 343 148 370 173 15 15
-299 10 -430 -6 -166 -21 -185 -20 -185 5 0 30 23 70 59 104 17 17 31 34 31
38 0 5 -15 25 -34 44 -43 45 -62 92 -40 101 46 17 208 -20 418 -97 76 -28 140
-49 142 -47 2 2 -89 48 -204 102 -390 185 -516 267 -602 390 -28 41 -30 47
-50 123 l-11 42 -92 -1 c-59 0 -116 -7 -160 -20z M8726 12634 c-3 -9 -6 -23
-6 -32 0 -29 -56 -135 -94 -179 -73 -84 -326 -229 -678 -388 -59 -27 -106 -50
-104 -52 1 -2 74 22 162 53 163 57 338 104 387 104 15 0 30 -6 33 -14 7 -19
-18 -65 -55 -100 l-31 -29 34 -41 c42 -53 69 -104 60 -118 -7 -11 -40 -9 -204
12 -41 5 -149 9 -240 9 -192 0 -192 6 -2 -92 179 -92 252 -112 422 -111 167 1
248 20 405 98 285 142 477 392 451 588 -25 185 -204 307 -452 308 -66 0 -83
-3 -88 -16z M6320 12618 c1 -66 116 -196 235 -268 114 -69 488 -254 478 -237
-4 8 -56 68 -115 134 -181 201 -322 304 -497 364 -63 22 -101 24 -101 7z
M8549 12601 c-153 -55 -301 -170 -494 -383 -59 -65 -103 -118 -98 -118 13 0
348 170 435 221 157 91 235 170 264 265 13 43 12 44 -9 43 -12 0 -56 -12 -98
-28z M5655 12257 c-17 -82 15 -248 67 -351 94 -186 248 -301 487 -363 126 -33
306 -37 396 -10 60 18 210 86 203 92 -1 1 -41 -4 -88 -12 -289 -49 -633 69
-855 292 -122 122 -174 213 -194 338 l-8 52 -8 -38z M9315 12243 c-22 -107
-46 -158 -116 -254 -195 -264 -539 -412 -882 -378 -60 6 -111 9 -113 6 -5 -5
178 -70 244 -87 72 -18 247 -14 333 9 325 84 525 317 546 638 6 89 0 123 -12
66z M7378 12203 c-33 -5 -32 -1 -11 -76 16 -59 16 -59 47 -51 28 8 95 8 170 2
27 -3 30 0 46 58 l17 62 -36 6 c-39 6 -189 6 -233 -1z M6668 12048 c17 -19 32
-40 32 -47 0 -7 -16 -33 -36 -57 -20 -25 -35 -46 -33 -49 3 -2 49 1 104 6 55
6 181 11 280 11 l180 2 -235 77 c-129 43 -255 80 -280 84 l-45 7 33 -34z
M8230 12055 c-47 -13 -116 -36 -155 -51 -38 -15 -115 -41 -170 -59 l-100 -32
255 -6 c140 -3 266 -9 279 -13 l25 -7 -22 29 c-12 16 -31 41 -42 56 l-21 27
31 34 c49 56 45 57 -80 22z M7423 12015 c-30 -21 -46 -78 -40 -141 9 -87 59
-136 87 -84 6 11 16 20 23 20 7 0 18 -9 25 -20 35 -56 92 7 92 103 0 64 -19
110 -52 128 -19 10 -24 9 -36 -10 -18 -26 -38 -27 -52 -1 -13 24 -19 25 -47 5z
M7223 11815 c-175 -90 -373 -268 -566 -509 -181 -227 -243 -339 -366 -657 -43
-113 -99 -245 -124 -295 -149 -296 -431 -522 -809 -647 -103 -35 -317 -87
-353 -87 -9 0 -51 -31 -92 -70 -129 -121 -263 -172 -443 -169 l-104 2 -18 -43
c-36 -85 -130 -369 -178 -537 -175 -616 -267 -1348 -240 -1913 24 -486 87
-912 201 -1360 46 -180 172 -578 216 -678 l18 -43 125 -3 c106 -1 136 -6 198
-28 200 -72 356 -240 428 -463 20 -62 27 -107 31 -200 7 -171 -23 -299 -102
-429 l-35 -58 47 -61 c506 -664 1161 -1125 1843 -1297 420 -106 780 -106 1200
0 683 172 1335 631 1843 1297 l47 61 -35 58 c-79 130 -109 258 -102 429 4 93
11 138 31 200 72 223 228 391 428 463 62 22 92 27 198 28 l125 3 18 43 c44
100 170 498 216 678 114 448 177 874 201 1360 27 565 -65 1297 -240 1913 -48
168 -142 452 -178 537 l-18 43 -104 -2 c-177 -3 -313 48 -438 164 -70 65 -71
66 -159 81 -460 79 -830 292 -1030 591 -78 118 -126 220 -213 453 -39 107 -92
233 -117 280 -187 356 -596 786 -841 886 -56 23 -57 23 -66 3 -7 -15 -4 -27
12 -47 56 -71 158 -233 246 -392 149 -266 214 -359 344 -489 87 -86 111 -116
101 -123 -13 -9 -86 -6 -206 8 -51 6 -53 6 -70 -26 -40 -71 -43 -74 -91 -55
-54 22 -139 115 -185 203 -45 85 -90 235 -117 382 -11 63 -35 188 -52 277
l-32 162 -30 -17 c-41 -21 -132 -22 -173 0 -18 9 -35 13 -37 10 -10 -16 -35
-134 -51 -232 -53 -339 -99 -498 -182 -629 -65 -103 -158 -180 -202 -166 -9 3
-27 26 -40 51 l-22 47 -52 -7 c-152 -20 -217 -19 -217 3 0 4 28 32 63 61 127
107 222 240 427 597 73 127 154 258 181 292 45 55 65 111 40 111 -6 0 -50 -20
-98 -45z m887 -3029 c240 -51 439 -246 506 -496 22 -81 24 -262 5 -340 -19
-80 -81 -206 -135 -277 -25 -34 -78 -85 -116 -114 l-69 -53 67 -21 c353 -113
593 -432 631 -840 27 -280 -60 -578 -234 -805 -61 -80 -199 -208 -282 -263
-300 -199 -728 -291 -1153 -247 -410 43 -658 173 -1068 563 -312 298 -479 410
-714 481 -152 46 -262 59 -478 53 -107 -2 -204 -8 -215 -12 -17 -6 -18 -5 -3
4 29 19 265 80 376 97 146 22 378 22 507 -1 200 -35 386 -114 540 -230 44 -33
141 -123 215 -200 393 -408 483 -485 653 -565 145 -68 228 -85 412 -84 185 1
264 17 399 83 286 139 485 438 540 813 40 264 7 507 -95 717 -42 87 -64 117
-132 186 -64 64 -99 90 -157 118 -116 55 -191 67 -402 67 l-183 0 -102 -50
-103 -49 0 -565 0 -564 98 -17 c53 -9 102 -18 107 -20 6 -2 -186 -3 -425 -3
-396 0 -428 1 -360 14 41 7 90 16 108 19 l32 6 0 489 0 489 -57 59 c-39 39
-100 83 -183 132 -69 40 -138 81 -154 90 l-28 18 128 66 c148 76 214 123 261
184 l33 44 0 498 0 498 -22 5 c-13 3 -60 11 -105 17 -46 7 -83 14 -83 16 0 2
309 4 688 4 546 0 700 -3 752 -14z M7320 8168 l0 -523 48 -32 c113 -76 139
-83 284 -83 220 0 308 28 411 131 174 175 216 512 95 769 -43 91 -152 198
-233 231 -57 23 -72 24 -332 27 l-273 3 0 -523z M6989 7779 c-55 -106 -135
-187 -251 -254 -48 -27 -87 -53 -88 -56 0 -4 24 -19 53 -33 134 -68 242 -175
305 -303 15 -29 29 -53 32 -53 3 0 21 26 39 58 96 162 159 227 289 292 l63 32
-67 40 c-85 49 -194 137 -230 183 -15 20 -44 68 -64 107 l-38 71 -43 -84z
M7262 11620 c-18 -27 -76 -128 -129 -222 -130 -234 -233 -387 -327 -485 l-78
-82 68 6 c117 12 117 12 139 -29 11 -21 26 -38 34 -38 23 0 106 92 144 161 56
99 92 224 142 483 25 132 44 243 43 248 -2 5 -18 -14 -36 -42z M7694 11650 c3
-14 26 -134 51 -267 51 -268 70 -335 123 -438 37 -71 132 -180 151 -174 5 2
20 20 33 39 23 33 27 35 74 32 27 -1 69 -5 94 -8 l45 -6 -61 64 c-117 122
-201 249 -397 599 -42 75 -86 147 -97 160 l-21 24 5 -25z M5762 11604 c-342
-246 -674 -583 -950 -965 -34 -47 -62 -89 -62 -93 0 -5 22 -32 49 -62 102
-112 144 -224 143 -384 0 -67 -6 -114 -21 -160 -11 -35 -19 -65 -18 -66 4 -4
132 22 144 29 20 13 36 136 31 246 -7 133 -40 236 -108 339 l-48 72 71 94
c251 328 613 681 889 866 37 25 68 48 68 51 0 3 -26 23 -58 45 l-57 40 -73
-52z M9097 11620 c-26 -22 -47 -43 -45 -47 1 -4 43 -37 93 -72 292 -206 616
-525 862 -847 l71 -94 -48 -72 c-27 -40 -61 -109 -76 -153 -25 -72 -28 -94
-29 -220 0 -85 5 -156 12 -181 l13 -41 71 -12 c40 -6 73 -10 75 -8 2 1 -6 32
-17 67 -15 46 -21 93 -21 160 -1 160 41 272 143 384 27 30 49 57 49 62 0 11
-113 165 -216 294 -231 290 -513 560 -801 768 -40 29 -76 52 -80 51 -5 0 -30
-18 -56 -39z M5925 11465 c-297 -208 -604 -504 -848 -817 l-68 -87 41 -68 c62
-103 91 -206 97 -343 3 -63 1 -140 -5 -170 -6 -30 -9 -56 -8 -58 6 -5 213 71
282 104 193 91 373 245 481 411 31 48 101 184 155 302 54 119 117 247 140 286
64 108 190 282 264 363 l66 72 -79 0 c-103 0 -256 24 -344 53 l-71 24 -103
-72z M8249 11503 c159 -195 202 -253 266 -348 98 -146 148 -249 243 -497 132
-342 213 -478 360 -604 242 -207 568 -340 967 -396 58 -8 233 -12 495 -13 341
-1 418 -4 487 -18 227 -48 380 -139 476 -285 72 -108 117 -263 117 -399 l0
-48 43 48 c41 44 47 47 92 47 l48 0 -6 83 c-15 207 -132 422 -300 550 -199
153 -449 213 -772 187 -245 -19 -492 -24 -601 -11 -393 46 -752 196 -972 405
-124 118 -170 193 -295 482 -123 283 -196 407 -374 629 -48 61 -98 123 -110
138 -15 20 -48 37 -105 58 -46 16 -84 29 -86 29 -2 0 10 -17 27 -37z M8904
11514 c-103 -38 -226 -57 -341 -51 l-102 5 79 -88 c181 -202 287 -375 410
-670 160 -384 287 -524 611 -679 100 -48 295 -119 303 -110 2 2 0 29 -6 59 -6
30 -8 107 -5 170 6 137 35 240 97 343 l41 68 -68 87 c-176 225 -451 509 -644
663 -91 73 -267 202 -299 219 -9 4 -40 -2 -76 -16z M6680 11502 c-36 -15 -71
-31 -77 -35 -25 -16 -221 -258 -276 -339 -85 -127 -122 -196 -222 -416 -51
-111 -117 -241 -146 -289 -61 -97 -192 -241 -282 -309 -227 -170 -559 -286
-901 -314 -69 -5 -152 -8 -183 -5 -32 3 -137 12 -233 21 -223 21 -449 15 -565
-15 -105 -27 -245 -97 -333 -166 -159 -124 -283 -356 -299 -557 l-6 -78 42 0
c36 0 49 -6 91 -46 l50 -47 0 59 c0 91 34 235 75 321 30 61 55 96 119 158 92
92 181 141 312 174 153 39 230 44 604 37 378 -8 484 -1 674 44 299 69 581 208
760 371 143 131 235 286 352 594 128 339 215 487 446 763 43 50 78 94 78 97 0
9 -13 5 -80 -23z M4215 9564 c-307 -717 -495 -1653 -495 -2466 0 -663 121
-1400 336 -2048 54 -160 179 -487 193 -503 4 -4 33 4 64 18 249 114 527 -35
613 -330 22 -77 23 -219 0 -304 -22 -84 -57 -148 -124 -222 -65 -72 -70 -54
64 -232 531 -705 1166 -1170 1888 -1382 250 -74 494 -109 746 -109 966 0 1922
542 2641 1500 126 168 122 152 57 223 -101 112 -141 218 -141 376 -1 368 329
618 630 480 31 -14 60 -22 64 -18 14 16 139 343 193 503 254 765 376 1666 326
2400 -51 731 -198 1392 -455 2042 l-39 96 -252 0 c-139 0 -283 3 -321 7 l-68
7 25 -26 c33 -37 166 -102 236 -116 58 -12 234 -9 265 4 14 6 27 -21 77 -156
109 -295 189 -567 251 -848 115 -523 172 -1117 151 -1569 -35 -729 -170 -1400
-413 -2039 -46 -122 -52 -133 -71 -127 -52 17 -211 17 -276 0 -192 -50 -352
-207 -427 -420 -26 -74 -28 -91 -27 -225 0 -129 3 -154 27 -225 16 -48 47
-110 76 -153 l50 -72 -71 -92 c-170 -223 -398 -468 -597 -640 -409 -355 -861
-593 -1341 -707 -218 -53 -333 -66 -570 -66 -347 0 -630 57 -985 197 -548 217
-1095 654 -1523 1216 l-71 92 50 72 c29 43 60 105 76 153 24 71 27 96 27 225
1 134 -1 151 -27 225 -75 213 -235 370 -427 420 -65 17 -224 17 -276 0 -19 -6
-25 5 -71 127 -243 639 -378 1310 -413 2039 -21 452 36 1046 151 1569 62 281
142 553 251 848 50 135 63 162 77 156 31 -13 207 -16 265 -4 70 14 203 79 236
116 l25 26 -170 -7 c-222 -8 -241 -8 -362 0 l-102 8 -16 -39z"/>
</g>
</svg>
